Coordinates
version=1
nRows=27
nColumns=12
inDegrees=yes

Units are S.I. units (second, meters, Newtons, ...)
Angles are in degrees

endheader
time	SC_y	SC_z	SC_x	AC_y	AC_z	AC_x	GH_y	GH_z	GH_yy	EL_x	PS_y
       0.0              -17.65          28.62          3.132          48.05          2.074         -10.19          132.3         -2.514         -174.0          67.38          145.2
   0.00984              -17.66          28.62          3.137          48.05          2.072         -10.19          132.3         -2.515         -174.0          67.37          145.2
   0.01968              -17.67          28.62          3.142          48.05           2.07         -10.19          132.3         -2.517         -173.9          67.36          145.2
   0.02952              -17.67          28.61          3.148          48.06          2.068         -10.19          132.3         -2.518         -173.9          67.36          145.2
   0.03936              -17.68          28.61          3.154          48.06          2.066         -10.19          132.3          -2.52         -173.9          67.35          145.2
    0.0492              -17.69           28.6          3.161          48.06          2.064         -10.19          132.2         -2.521         -173.8          67.34          145.2
   0.05904              -17.69           28.6          3.168          48.07          2.062         -10.19          132.2         -2.523         -173.8          67.33          145.2
   0.06888               -17.7           28.6          3.176          48.07          2.059         -10.19          132.2         -2.525         -173.8          67.32          145.2
   0.07872              -17.71          28.59          3.184          48.08          2.056         -10.19          132.2         -2.527         -173.7          67.31          145.2
   0.08856              -17.72          28.59          3.192          48.08          2.053         -10.19          132.2         -2.529         -173.7           67.3          145.1
    0.0984              -17.73          28.58          3.202          48.09           2.05         -10.19          132.2         -2.531         -173.7          67.28          145.1
    0.1082              -17.74          28.58          3.212          48.09          2.047         -10.18          132.1         -2.534         -173.6          67.27          145.1
    0.1181              -17.75          28.57          3.223           48.1          2.043         -10.18          132.1         -2.536         -173.6          67.25          145.1
    0.1279              -17.76          28.56          3.234          48.11          2.039         -10.18          132.1         -2.539         -173.5          67.24          145.1
    0.1378              -17.78          28.56          3.247          48.11          2.034         -10.18          132.1         -2.542         -173.5          67.22          145.1
    0.1476              -17.79          28.55          3.261          48.12           2.03         -10.18          132.0         -2.545         -173.4           67.2          145.0
    0.1574              -17.81          28.54          3.276          48.13          2.025         -10.18          132.0         -2.549         -173.3          67.18          145.0
    0.1673              -17.83          28.53          3.292          48.14          2.019         -10.18          132.0         -2.553         -173.3          67.16          145.0
    0.1771              -17.85          28.52           3.31          48.15          2.013         -10.18          131.9         -2.557         -173.2          67.13          145.0
     0.187              -17.87          28.51          3.329          48.16          2.006         -10.18          131.9         -2.562         -173.1          67.11          144.9
    0.1968              -17.89           28.5          3.351          48.17          1.999         -10.18          131.8         -2.567         -173.0          67.08          144.9
    0.2066              -17.91          28.49          3.374          48.19          1.991         -10.18          131.8         -2.573         -172.9          67.04          144.8
    0.2165              -17.94          28.47            3.4           48.2          1.982         -10.18          131.7         -2.579         -172.8          67.01          144.8
    0.2263              -17.97          28.46          3.429          48.22          1.972         -10.18          131.7         -2.586         -172.7          66.97          144.8
    0.2362              -18.01          28.44          3.461          48.24          1.961         -10.18          131.6         -2.593         -172.5          66.92          144.7
     0.246              -18.04          28.42          3.497          48.26          1.949         -10.18          131.5         -2.602         -172.4          66.87          144.6
    0.2558              -18.09           28.4          3.537          48.28          1.935         -10.18          131.4         -2.612         -172.2          66.82          144.6
